<svg xmlns="http://www.w3.org/2000/svg" version="1.1" xmlns:xlink="http://www.w3.org/1999/xlink" xmlns:svgjs="http://svgjs.dev/svgjs" width="1000" height="1000" viewBox="0 0 1000 1000"><rect width="1000" height="1000" fill="#000000"></rect><g transform="matrix(0.7,0,0,0.7,149.57575757575756,282.1265587044535)"><svg viewBox="0 0 396 247" data-background-color="#ffffff" preserveAspectRatio="xMidYMid meet" height="623" width="1000" xmlns="http://www.w3.org/2000/svg" xmlns:xlink="http://www.w3.org/1999/xlink"><g id="tight-bounds" transform="matrix(1,0,0,1,0.2400000000000091,-0.09999999999999432)"><svg viewBox="0 0 395.52 247.2" height="247.2" width="395.52"><g><svg></svg></g><g><svg viewBox="0 0 395.52 247.2" height="247.2" width="395.52"><g transform="matrix(1,0,0,1,86.10339529411763,47.215199999999996)"><svg viewBox="0 0 223.31320941176472 152.7696" height="152.7696" width="223.31320941176472"><g><svg viewBox="0 0 223.31320941176472 152.7696" height="152.7696" width="223.31320941176472"><g><svg viewBox="0 0 223.31320941176472 152.7696" height="152.7696" width="223.31320941176472"><g><svg viewBox="0 0 223.31320941176472 152.7696" height="152.7696" width="223.31320941176472"><g id="textblocktransform"><svg viewBox="0 0 223.31320941176472 152.7696" height="152.7696" width="223.31320941176472" id="textblock"><g><svg viewBox="0 0 223.31320941176472 152.7696" height="152.7696" width="223.31320941176472"><g transform="matrix(1,0,0,1,0,0)"><svg width="223.31320941176472" viewBox="3.5 -33.95000076293945 49.70000076293945 34" height="152.7696" data-palette-color="#d39e87"><path d="M3.5 0L3.5-33.85Q3.85-33.85 5.1-33.88 6.35-33.9 7.9-33.9 9.45-33.9 11-33.93 12.55-33.95 13.55-33.95L13.55-33.95Q19.65-33.95 22.55-31.23 25.45-28.5 25.45-23.75L25.45-23.75Q25.45-21.45 24.65-19.53 23.85-17.6 22.28-16.2 20.7-14.8 18.38-14.03 16.05-13.25 12.95-13.25L12.95-13.25 9.45-13.25 9.45 0 3.5 0ZM9.45-29.65L9.45-17.7 13.3-17.7Q16.45-17.7 17.8-19.35 19.15-21 19.15-23.55L19.15-23.55Q19.15-24.7 18.85-25.8 18.55-26.9 17.82-27.78 17.1-28.65 15.88-29.18 14.65-29.7 12.8-29.7L12.8-29.7Q11.7-29.7 10.88-29.7 10.05-29.7 9.45-29.65L9.45-29.65ZM30.25 0L30.25-33.85Q30.6-33.85 31.85-33.88 33.1-33.9 34.65-33.9 36.2-33.9 37.75-33.93 39.3-33.95 40.3-33.95L40.3-33.95Q46.1-33.95 49.12-31.65 52.15-29.35 52.15-25.15L52.15-25.15Q52.15-22.7 50.8-20.75 49.45-18.8 47.05-17.6L47.05-17.6Q50.05-16.45 51.62-14.35 53.2-12.25 53.2-9.5L53.2-9.5Q53.2-5.2 49.95-2.58 46.7 0.05 40.1 0.05L40.1 0.05Q38.75 0.05 37.2 0.05 35.65 0.05 34.25 0.03 32.85 0 31.77 0 30.7 0 30.25 0L30.25 0ZM36.2-15.15L36.2-4.25 40.5-4.25Q43.9-4.25 45.37-5.78 46.85-7.3 46.85-9.6L46.85-9.6Q46.85-10.65 46.52-11.65 46.2-12.65 45.4-13.45 44.6-14.25 43.27-14.73 41.95-15.2 39.95-15.2L39.95-15.2Q38.75-15.2 37.82-15.2 36.9-15.2 36.2-15.15L36.2-15.15ZM36.2-29.65L36.2-19.45 40.05-19.45Q43.2-19.45 44.55-20.9 45.9-22.35 45.9-24.45L45.9-24.45Q45.9-25.4 45.6-26.35 45.3-27.3 44.57-28.05 43.85-28.8 42.62-29.25 41.4-29.7 39.55-29.7L39.55-29.7Q38.45-29.7 37.62-29.7 36.8-29.7 36.2-29.65L36.2-29.65Z" opacity="1" transform="matrix(1,0,0,1,0,0)" fill="#ffffff" class="undefined-text-0" data-fill-palette-color="primary" id="text-0"></path></svg></g></svg></g></svg></g></svg></g></svg></g></svg></g></svg></g><g><path d="M235.257 0c68.262 0 123.6 55.338 123.6 123.6 0 68.262-55.338 123.6-123.6 123.6-30.402 0-58.24-10.976-79.769-29.183l11.148 0c19.26 14.022 42.974 22.294 68.621 22.295 64.458 0 116.712-52.254 116.711-116.712 0-64.458-52.254-116.712-116.711-116.712-25.647 0-49.361 8.272-68.621 22.295l-11.148 0c21.528-18.206 49.366-29.183 79.769-29.183z" fill="#d39e87" stroke="transparent" data-fill-palette-color="tertiary"></path></g></svg></g><defs></defs></svg><rect width="395.52" height="247.2" fill="none" stroke="none" visibility="hidden"></rect></g></svg></g></svg>