<svg xmlns="http://www.w3.org/2000/svg" viewBox="0 0 500 500"><g id="freepik--background-simple--inject-2"><path d="M146.84,240.67c25.09-33.08,12.3-110.65,59.25-123.74,42.75-11.9,53.86,54,83.76,61.66,37.2,9.53,110.41-61.93,152.28-16.19,40.57,44.31-103,160.08-157.36,182.17-86.29,35.08-240.95,22.48-235.88-41.84C52.29,259.55,125.22,269.17,146.84,240.67Z" style="fill:#E4D0C0"></path><path d="M146.84,240.67c25.09-33.08,12.3-110.65,59.25-123.74,42.75-11.9,53.86,54,83.76,61.66,37.2,9.53,110.41-61.93,152.28-16.19,40.57,44.31-103,160.08-157.36,182.17-86.29,35.08-240.95,22.48-235.88-41.84C52.29,259.55,125.22,269.17,146.84,240.67Z" style="fill:#fff;opacity:0.9"></path></g><g id="freepik--character-2--inject-2"><path d="M321.78,195.61c-2.69-2.8-4.6-8-5.53-11.35L312,194.4a6.9,6.9,0,0,1,1.56,5.82c0,.09-.15,1.79-3,3.53,0,0,.51,10.26,6.62,8.81s9.43-13.63,9.43-13.63l.44-3.45S324.27,197.82,321.78,195.61Z" style="fill:#ffc3bd"></path><path d="M313.07,191.92l-1,2.48a7.39,7.39,0,0,1,1.58,3.33c2.8-3.3,3.11-8.64,3.11-8.64Z" style="opacity:0.1"></path><path d="M268.71,241.27s16.49.67,23.81-1.33,13.54-14.81,13.54-14.81l-8.35-4.61-8.3,12.35-20.68,3.31L262.79,232s-12-2.56-12-1,6.19,2.82,6.19,2.82.37,7.38,2.91,7.61S268.71,241.27,268.71,241.27Z" style="fill:#ffc3bd"></path><path d="M309.07,206s-7.14,1-11.81,9.65-.68,9,3.27,11.44,5.93,3,7.75-2.34S313.69,205.45,309.07,206Z" style="fill:#E4D0C0"></path><path d="M309.05,222.31l-2.65-5.4-4.45-.34a75.15,75.15,0,0,0,.23,11.46c2.89,1.51,4.56,1.21,6.1-3.3C308.51,224.05,308.78,223.23,309.05,222.31Z" style="opacity:0.1"></path><path d="M294.83,171.54s-5.2,1.84-1.76,7.13-3.5,8.89,8.15,10.35.41-19.61.41-19.61Z" style="fill:#263238"></path><path d="M294.83,171.54s-5.2,1.84-1.76,7.13-3.5,8.89,8.15,10.35.41-19.61.41-19.61Z" style="opacity:0.30000000000000004"></path><path d="M339.62,204.74c-1.74-11.32-8.33-11.12-14.75-8.59.45,4.26.46,9.7-5.71,13.09-5.55,3-7.71-2-7.83-6.22-5.82,3.31-10.68,7.55-9.09,16,.91,4.8,5.15,10.07,9.49,16.76,5.19,8,10.53,17.08,10.53,17.08l29.66-15.1S341.51,217,339.62,204.74Z" style="fill:#E4D0C0"></path><path d="M339.62,204.74a21.7,21.7,0,0,0-1.07-4.28l-4.49-.76-2.34,3.72s4.95,8.72,11.53,14.23A72.41,72.41,0,0,1,339.62,204.74Z" style="opacity:0.2"></path><path d="M347.55,201.14s10.18,7,13.29,9.65c4.63,4,17.1,17.47,17.1,17.47l7.65,4.18v4.84l-3.62,2.5a2.42,2.42,0,0,1-3.39-.65l-4.64-6.93s-11.44-10.45-15.65-13.43c-3.56-2.52-15.1-8.71-15.1-8.71Z" style="fill:#ffc3bd"></path><path d="M328.76,195.1s6.56-2.95,12.15,0,8.06,4.57,7.51,8.13-2.6,10.92-6.28,9.7S326.72,200.06,328.76,195.1Z" style="fill:#E4D0C0"></path><path d="M317.8,175.82c.76,7.67,1.25,10.89-1.95,15.4-4.82,6.79-14.4,6.05-17.43-1.23-2.74-6.56-3.52-18,3.42-22.2a10.49,10.49,0,0,1,16,8Z" style="fill:#ffc3bd"></path><path d="M301.69,181.68a16.77,16.77,0,0,1-1.56,4.3,2.67,2.67,0,0,0,2.26.07Z" style="fill:#ed893e"></path><path d="M306.81,176.56a.29.29,0,0,0,.11-.11.31.31,0,0,0-.11-.41h0a3.56,3.56,0,0,0-3.28-.21.32.32,0,0,0-.13.42.3.3,0,0,0,.4.13,3,3,0,0,1,2.72.2A.29.29,0,0,0,306.81,176.56Z" style="fill:#263238"></path><path d="M295.36,178.5l.13-.1a3,3,0,0,1,2.47-1.1.31.31,0,0,0,.35-.26h0a.33.33,0,0,0-.28-.34,3.62,3.62,0,0,0-3,1.32.31.31,0,0,0,0,.43.33.33,0,0,0,.33.06Z" style="fill:#263238"></path><path d="M305.89,180c.1.61-.15,1.16-.56,1.23s-.81-.37-.9-1,.14-1.16.54-1.23S305.78,179.34,305.89,180Z" style="fill:#263238"></path><path d="M298.9,181.09c.1.61-.15,1.16-.55,1.23s-.8-.38-.91-1,.15-1.17.55-1.23S298.81,180.46,298.9,181.09Z" style="fill:#263238"></path><path d="M298.17,180.09l-1.55-.18S297.57,180.94,298.17,180.09Z" style="fill:#263238"></path><path d="M305.16,179l-1.55-.18S304.56,179.81,305.16,179Z" style="fill:#263238"></path><path d="M307.38,188.89a6.64,6.64,0,0,0,1.08-.66.22.22,0,0,0,.05-.31h0a.23.23,0,0,0-.31,0,6,6,0,0,1-5.32,1,.22.22,0,0,0-.29.12.21.21,0,0,0,.13.29A6.23,6.23,0,0,0,307.38,188.89Z" style="fill:#263238"></path><path d="M301.26,171.62c-3,.36-11,2.64-9.73-4.82s15.56-11.19,22.2-6.37,11.74,4.46,17,.55,7.82-2.37,14.56,1.27c0,0-3.64,6.28-1.91,10.1,0,0-4-4-11.47.27,0,0,8.64-2.29,11.92,3.68,0,0-.91,6.59,2.27,10.51s-.09,8.56-12.28,3.83-13.49-.39-16.3-2.48-4.92-7.75-5.36-11.86C311.88,173.34,310.55,170.52,301.26,171.62Z" style="fill:#263238"></path><path d="M318.85,181.09a5.62,5.62,0,0,1-2.15,3.73c-1.57,1.18-3.08,0-3.24-1.91-.15-1.67.49-4.31,2.36-4.77a2.54,2.54,0,0,1,3,3Z" style="fill:#ffc3bd"></path><path d="M359,393c.26,6.39.45,11.46.45,11.46l-7.1.81s-.68-4.32-1.7-10.95Z" style="fill:#ffc3bd"></path><path d="M349.23,403.73a3,3,0,0,1-2.12-.4.63.63,0,0,1,0-.73.82.82,0,0,1,.5-.43c1.17-.4,3.73.85,3.84.91a.18.18,0,0,1,.1.17.16.16,0,0,1-.13.14A12.14,12.14,0,0,1,349.23,403.73Zm-1.21-1.3a.87.87,0,0,0-.32.06.45.45,0,0,0-.32.25c-.11.22-.06.32,0,.37.36.44,2.15.34,3.46.09A7.9,7.9,0,0,0,348,402.43Z" style="fill:#E4D0C0"></path><path d="M351.36,403.39h-.07c-.87-.32-2.67-1.75-2.57-2.56,0-.19.13-.43.59-.51a1.23,1.23,0,0,1,1,.23,4.74,4.74,0,0,1,1.27,2.67.14.14,0,0,1-.18.17Zm-1.92-2.76h-.09c-.3,0-.32.17-.32.21,0,.48,1.18,1.62,2.09,2.08a3.93,3.93,0,0,0-1.08-2.11.91.91,0,0,0-.6-.18Z" style="fill:#E4D0C0"></path><path d="M352.05,402.35l7.74-.49a.62.62,0,0,1,.64.45l1.81,6.21a1,1,0,0,1-.7,1.29.85.85,0,0,1-.22,0c-2.79.13-5.29.14-8.76.36-4.1.27-3,.69-7.85,1.07-2.9.22-3.64-3-2.42-3.29,5.59-1.07,6.07-2.81,8.11-5A2.59,2.59,0,0,1,352.05,402.35Z" style="fill:#263238"></path><path d="M354.7,242.18l-1.35-4.85a1,1,0,0,0-1.38-.61L321.71,252a1,1,0,0,0-.36,1.43l3.06,4.45S331.92,309,335,326c3.18,17.33,14.56,69.19,14.56,69.19a.72.72,0,0,0,.83.57l8.81-1.42a.73.73,0,0,0,.61-.7c.1-4.42,0-32.36-2.78-52.13-1-7.06-3.38-12.72-4.19-16.61-.89-4.29.49-7.17,1-17.5C354.94,288,356.16,257.3,354.7,242.18Z" style="fill:#263238"></path><path d="M353.91,307.44c.35-6.51.71-14.27,1-22.29l-8.78-14.8-3.91-8.74-3.7,5s6.54,27.51,15.13,44.79C353.74,310.24,353.84,308.92,353.91,307.44Z" style="opacity:0.5"></path><path d="M420.5,368.54c3.68,5.23,6.07,8.67,6.07,8.67L421,381.73l-7.36-8.28Z" style="fill:#ffc3bd"></path><path d="M417.16,382.08a3,3,0,0,1-2,.81.63.63,0,0,1-.43-.6.88.88,0,0,1,.19-.63c.77-1,3.6-1.3,3.73-1.32a.16.16,0,0,1,.17.1.17.17,0,0,1,0,.19A13.2,13.2,0,0,1,417.16,382.08Zm-1.73-.44a1.26,1.26,0,0,0-.24.22.51.51,0,0,0-.12.39c0,.24.12.3.19.32.54.17,2-.88,3-1.8A7.77,7.77,0,0,0,415.43,381.64Z" style="fill:#E4D0C0"></path><path d="M418.77,380.64l-.06,0c-.91.2-3.2,0-3.55-.76-.1-.17-.13-.44.22-.75a1.25,1.25,0,0,1,.92-.33,4.83,4.83,0,0,1,2.53,1.56.17.17,0,0,1,0,.17A.2.2,0,0,1,418.77,380.64Zm-3.11-1.28-.08.05c-.23.2-.18.31-.16.35.25.41,1.87.72,2.89.61a4.06,4.06,0,0,0-2.06-1.19.9.9,0,0,0-.59.18Z" style="fill:#E4D0C0"></path><path d="M418.78,379.4l6.25-4.61a.62.62,0,0,1,.78,0l4.87,4.25a1,1,0,0,1,.12,1.46,1.1,1.1,0,0,1-.16.15c-2.28,1.62-4.38,3-7.18,5.05-3.3,2.44-2.17,2.22-6,5.14-2.32,1.76-4.71-.59-3.82-1.45,4.13-3.93,3.59-5.65,4.14-8.57A2.52,2.52,0,0,1,418.78,379.4Z" style="fill:#263238"></path><path d="M332.54,254.52s23.17,53.41,34.12,69.33c9.73,14.14,46.67,50.32,46.67,50.32a1.56,1.56,0,0,0,2.15.13l5.13-4.36a1.57,1.57,0,0,0,.32-2c-3.15-5.13-16.41-26.46-28.05-40.34-4.64-5.53-9.1-9.59-11.3-12.64-2.89-4-2.21-7.26-4.5-18.45-4.26-20.81-12.56-51.41-25.16-56.3Z" style="fill:#263238"></path></g><g id="freepik--Device--inject-2"><path d="M287.81,405.43H193.42a10.66,10.66,0,0,1-10.79-11.82l20.74-237a13.16,13.16,0,0,1,12.86-11.83h94.39a10.66,10.66,0,0,1,10.79,11.83l-20.74,237A13.16,13.16,0,0,1,287.81,405.43Z" style="fill:#E4D0C0;opacity:0.30000000000000004"></path><path d="M310.62,144.74H216.23a13.16,13.16,0,0,0-12.86,11.83l-20.74,237a10.66,10.66,0,0,0,10.79,11.82h94.39a13.16,13.16,0,0,0,12.86-11.82l20.74-237A10.66,10.66,0,0,0,310.62,144.74Zm-15.2,248.87a7.32,7.32,0,0,1-7.15,6.57H193.88a5.93,5.93,0,0,1-6-6.57l20.74-237a7.32,7.32,0,0,1,7.15-6.58h94.39a5.93,5.93,0,0,1,6,6.58Z" style="fill:#E4D0C0"></path><path d="M310.62,144.74H216.23a13.16,13.16,0,0,0-12.86,11.83l-20.74,237a10.66,10.66,0,0,0,10.79,11.82h94.39a13.16,13.16,0,0,0,12.86-11.82l20.74-237A10.66,10.66,0,0,0,310.62,144.74Zm-15.2,248.87a7.32,7.32,0,0,1-7.15,6.57H193.88a5.93,5.93,0,0,1-6-6.57l20.74-237a7.32,7.32,0,0,1,7.15-6.58h94.39a5.93,5.93,0,0,1,6,6.58Z" style="fill:#fff;opacity:0.6000000000000001"></path><path d="M254.79,390.79h-26a1.62,1.62,0,0,0-1.58,1.46,1.31,1.31,0,0,0,1.33,1.45h26a1.62,1.62,0,0,0,1.59-1.45A1.32,1.32,0,0,0,254.79,390.79Z" style="fill:#fff"></path><path d="M254.15,255H226.63a6.22,6.22,0,0,1-6.3-6.9l2.41-27.53a7.68,7.68,0,0,1,7.5-6.9h27.53a6.23,6.23,0,0,1,6.3,6.9l-2.41,27.53A7.68,7.68,0,0,1,254.15,255Z" style="opacity:0.1"></path><path d="M251.15,252H223.63a6.22,6.22,0,0,1-6.3-6.9l2.41-27.53a7.68,7.68,0,0,1,7.5-6.9h27.53a6.23,6.23,0,0,1,6.3,6.9l-2.41,27.53A7.68,7.68,0,0,1,251.15,252Z" style="fill:#E4D0C0"></path><path d="M243.82,228.82c.47-5.34-4-9.66-10.1-9.66s-11.32,4.32-11.78,9.66c-.37,4.21,2.38,7.79,6.53,9.1a5.92,5.92,0,0,1-2.62,2.59,3.68,3.68,0,0,0,.63.31,5.07,5.07,0,0,0,6-2.37C238.32,238.25,243.37,234,243.82,228.82Z" style="fill:#fff"></path><path d="M256.49,233.44c.39-4.4-3.34-8-8.33-8a10.58,10.58,0,0,0-2.6.33,10.42,10.42,0,0,1,.19,3,12.44,12.44,0,0,1-6,9.29,8.46,8.46,0,0,0,6.38,3.27,3.26,3.26,0,0,0,4.22,1.89,4.83,4.83,0,0,0,.52-.23,3.58,3.58,0,0,1-1.61-1.94C253.13,240.15,256.17,237.09,256.49,233.44Z" style="fill:#fff"></path><path d="M241.53,340.2H221.06a4.63,4.63,0,0,1-4.69-5.13l1.79-20.47a5.72,5.72,0,0,1,5.59-5.14h20.47a4.63,4.63,0,0,1,4.69,5.14l-1.79,20.47A5.71,5.71,0,0,1,241.53,340.2Z" style="opacity:0.1"></path><path d="M271.57,300.36H246a5.78,5.78,0,0,1-5.85-6.42l2.23-25.59a7.15,7.15,0,0,1,7-6.42h25.6a5.79,5.79,0,0,1,5.85,6.42l-2.23,25.59A7.15,7.15,0,0,1,271.57,300.36Z" style="opacity:0.1"></path><path d="M268.57,297.36H243a5.78,5.78,0,0,1-5.85-6.42l2.23-25.59a7.15,7.15,0,0,1,7-6.42h25.6a5.79,5.79,0,0,1,5.85,6.42l-2.23,25.59A7.15,7.15,0,0,1,268.57,297.36Z" style="fill:#E4D0C0"></path><path d="M238.53,337.2H218.06a4.63,4.63,0,0,1-4.69-5.13l1.79-20.47a5.72,5.72,0,0,1,5.59-5.14h20.47a4.63,4.63,0,0,1,4.69,5.14l-1.79,20.47A5.71,5.71,0,0,1,238.53,337.2Z" style="fill:#E4D0C0"></path><path d="M270.25,267.59H246.5a3,3,0,0,0-3,2.73L242.17,286a2.46,2.46,0,0,0,2.49,2.72H268.4a3,3,0,0,0,3-2.72l1.37-15.66A2.46,2.46,0,0,0,270.25,267.59Zm-18.19,10.54-7.95,7.31,1.28-14.62Zm-5.22-8.65h22.73l-11.49,10.57a1.12,1.12,0,0,1-1.59,0Zm6.44,10,1.75,1.92a2.76,2.76,0,0,0,2.06.88,3.27,3.27,0,0,0,2.21-.88l2.09-1.92,6.7,7.34H245.3Zm9.56-1.34,8-7.31-1.28,14.62Z" style="fill:#fff"></path><polygon points="220.25 316.32 226.25 318.76 232.85 314.24 227.89 320.11 231.53 325.25 237.3 310.93 220.25 316.32" style="fill:#fff"></polygon><polygon points="225.84 320.12 228.54 323.42 225.66 323.42 225.84 320.12" style="fill:#fff"></polygon><path d="M223.45,324.43l-.63-.4a7.58,7.58,0,0,1,.61-.85l.57.49A6.86,6.86,0,0,0,223.45,324.43Z" style="fill:#fff"></path><path d="M223.15,329.36a2.72,2.72,0,0,1-1.29-1.6l.72-.2a2,2,0,0,0,1,1.15Zm-.63-2.58-.75-.06a5.36,5.36,0,0,1,.57-1.87l.68.34A4.52,4.52,0,0,0,222.52,326.78Z" style="fill:#fff"></path><path d="M238.27,332l-.74-.13a2.74,2.74,0,0,0,.05-.55,1.3,1.3,0,0,0-.27-.89l.58-.48a2.12,2.12,0,0,1,.44,1.37A4.27,4.27,0,0,1,238.27,332Zm-10.63-1.73-.78,0,0-.75a17.86,17.86,0,0,0,1.79,0l0,.75Zm2-.08,0-.75c.61,0,1.22-.1,1.81-.16l.07.75Zm-3.71,0-.31,0a8.68,8.68,0,0,1-1.55-.35l.24-.71a7.35,7.35,0,0,0,1.41.32l.29,0Zm10.8-.15a5,5,0,0,0-1.66-.24V329a5.6,5.6,0,0,1,1.93.29Zm-4.35-.09-.07-.75c.64-.06,1.26-.11,1.83-.14l0,.75C233.61,329.81,233,329.86,232.37,329.92Z" style="fill:#fff"></path><path d="M237.65,333.9l-.69-.3c.14-.32.26-.63.35-.9l.71.23C237.92,333.23,237.8,333.55,237.65,333.9Z" style="fill:#fff"></path><path d="M265.4,208.07h-23a5.21,5.21,0,0,1-5.27-5.78l2-23a6.43,6.43,0,0,1,6.28-5.78h23a5.21,5.21,0,0,1,5.27,5.78l-2,23A6.43,6.43,0,0,1,265.4,208.07Z" style="opacity:0.1"></path><path d="M262.4,205.07h-23a5.21,5.21,0,0,1-5.27-5.78l2-23a6.43,6.43,0,0,1,6.28-5.78h23a5.21,5.21,0,0,1,5.27,5.78l-2,23A6.43,6.43,0,0,1,262.4,205.07Z" style="fill:#E4D0C0"></path><path d="M263.63,192.47a17.12,17.12,0,0,0-14.91-16.34,5.68,5.68,0,0,0-7,1.62c-2,2.43-.22,4,2,5.74s4.21,3.07,6.18.64a5.8,5.8,0,0,0,1.31-3.13,13.43,13.43,0,0,1,7.77,8.52,5.77,5.77,0,0,0-3.22,1c-2.59,1.76-1.45,3.81.1,6.24s2.93,4.31,5.51,2.54A5.72,5.72,0,0,0,263.63,192.47Z" style="fill:#fff"></path><path d="M254,140.76H269.7c.78,0,.88-1.2.11-1.2H254.13c-.77,0-.88,1.2-.11,1.2Z" style="fill:#E4D0C0"></path><path d="M275.45,140.76H280c.78,0,.88-1.2.11-1.2h-4.51c-.77,0-.88,1.2-.1,1.2Z" style="fill:#E4D0C0"></path><g style="opacity:0.30000000000000004"><path d="M254,140.76H269.7c.78,0,.88-1.2.11-1.2H254.13c-.77,0-.88,1.2-.11,1.2Z" style="fill:#fff"></path></g><g style="opacity:0.30000000000000004"><path d="M275.45,140.76H280c.78,0,.88-1.2.11-1.2h-4.51c-.77,0-.88,1.2-.1,1.2Z" style="fill:#fff"></path></g><path d="M305.7,262.07l-1.38,15.68a.6.6,0,0,0,1.2.1q.68-7.83,1.37-15.68a.6.6,0,0,0-1.19-.1Z" style="fill:#E4D0C0"></path><path d="M303.82,283.49l-.39,4.51a.6.6,0,0,0,1.19.1l.39-4.5a.6.6,0,0,0-1.19-.11Z" style="fill:#E4D0C0"></path><g style="opacity:0.30000000000000004"><path d="M305.7,262.07l-1.38,15.68a.6.6,0,0,0,1.2.1q.68-7.83,1.37-15.68a.6.6,0,0,0-1.19-.1Z" style="fill:#fff"></path></g><g style="opacity:0.30000000000000004"><path d="M303.82,283.49l-.39,4.51a.6.6,0,0,0,1.19.1l.39-4.5a.6.6,0,0,0-1.19-.11Z" style="fill:#fff"></path></g></g></svg>